<svg xmlns="http://www.w3.org/2000/svg" viewBox="0 0 22 29">
    <path d="M.78 0h20.44a.788.788 0 0 1 .78.792v22.82a.908.908 0 0 1-.234.634l-4.525 4.516A.7.7 0 0 1 16.7 29H.78a.788.788 0 0 1-.78-.792V.792A.788.788 0 0 1 .78 0zm15.135 27.415v-3.8a.807.807 0 0 1 .858-.792h3.667V1.585H1.56v25.83zm3.433-3.015h-1.873v1.9z" data-name="パス 49"/>
    <path d="M5.305 6.26a.788.788 0 0 1-.78-.792.743.743 0 0 1 .78-.793h11.39a.743.743 0 0 1 .78.792.788.788 0 0 1-.78.792z" data-name="パス 50"/>
    <path d="M5.305 11.331a.743.743 0 0 1-.78-.792.788.788 0 0 1 .78-.792h11.39a.788.788 0 0 1 .78.792.743.743 0 0 1-.78.792z" data-name="パス 51"/>
    <path d="M5.305 16.402a.743.743 0 0 1-.78-.792.788.788 0 0 1 .78-.792h11.39a.788.788 0 0 1 .78.792.743.743 0 0 1-.78.792z" data-name="パス 52"/>
    <path d="M5.305 21.552a.788.788 0 0 1-.78-.792.743.743 0 0 1 .78-.792h7.177a.788.788 0 0 1 .78.792.846.846 0 0 1-.78.792z" data-name="パス 53"/>
</svg>
