<svg xmlns="http://www.w3.org/2000/svg" viewBox="0 0 30 30">
    <path d="M26.25 0H3.75A3.75 3.75 0 0 0 0 3.75v22.5A3.75 3.75 0 0 0 3.75 30h22.5A3.75 3.75 0 0 0 30 26.25V3.75A3.75 3.75 0 0 0 26.25 0zM7.5 28.125a1.877 1.877 0 0 1-1.875-1.875 3.754 3.754 0 0 1 3.75-3.75h11.25a3.754 3.754 0 0 1 3.75 3.75 1.877 1.877 0 0 1-1.875 1.875zm20.625-1.875a1.877 1.877 0 0 1-1.875 1.875h-.52a3.712 3.712 0 0 0 .52-1.875 5.625 5.625 0 0 0-5.625-5.625H9.375A5.625 5.625 0 0 0 3.75 26.25a3.712 3.712 0 0 0 .52 1.875h-.52a1.877 1.877 0 0 1-1.875-1.875V3.75A1.877 1.877 0 0 1 3.75 1.875h22.5a1.877 1.877 0 0 1 1.875 1.875zM15 5.625a6.563 6.563 0 1 0 6.563 6.563A6.562 6.562 0 0 0 15 5.625zm0 11.25a4.687 4.687 0 1 1 4.687-4.687A4.687 4.687 0 0 1 15 16.875z"/>
</svg>
