<svg xmlns="http://www.w3.org/2000/svg" viewBox="0 0 24 30.667">
    <path d="M21.333 10.667V9.333a9.464 9.464 0 0 0-.068-1.08l-.015-.252h-.024a9.293 9.293 0 0 0-9.226-8 9.291 9.291 0 0 0-8.575 5.656l3.8 1.376c.027-.056.053-.112.081-.167.068-.129.13-.262.209-.385s.174-.247.266-.367a5.129 5.129 0 0 1 .344-.414c.086-.092.178-.18.271-.266a5.484 5.484 0 0 1 .482-.4c.092-.067.183-.134.278-.2a5.24 5.24 0 0 1 .583-.315c.1-.046.188-.1.287-.136a5.248 5.248 0 0 1 .675-.208c.1-.025.188-.059.286-.078a5.332 5.332 0 0 1 1.018-.1 5.33 5.33 0 0 1 4.913 3.263 5.3 5.3 0 0 1 .42 2.07v1.337H2.657a2.67 2.67 0 0 0-2.659 2.666V28a2.671 2.671 0 0 0 2.666 2.667h18.669A2.67 2.67 0 0 0 23.998 28V13.333a2.67 2.67 0 0 0-2.665-2.666z"/>
</svg>
