<svg xmlns="http://www.w3.org/2000/svg" viewBox="0 0 23.478 30">
    <path d="M11.739 0a9.092 9.092 0 0 0-9.026 7.826H2.69l-.015.247a9.3 9.3 0 0 0-.066 1.057v1.3a2.612 2.612 0 0 0-2.61 2.614v14.348a2.613 2.613 0 0 0 2.609 2.609H20.87a2.612 2.612 0 0 0 2.609-2.609V13.044a2.612 2.612 0 0 0-2.609-2.609v-1.3a9.291 9.291 0 0 0-.071-1.062l-.015-.247h-.023A9.092 9.092 0 0 0 11.739 0zm0 3.913a5.215 5.215 0 0 1 4.807 3.192 5.187 5.187 0 0 1 .41 2.026v1.3H6.522v-1.3a5.336 5.336 0 0 1 .122-1.06 5.159 5.159 0 0 1 .5-1.353c.067-.127.127-.257.2-.377s.171-.241.26-.359a5.129 5.129 0 0 1 .337-.405c.085-.09.174-.176.265-.26a5.3 5.3 0 0 1 .472-.39c.09-.066.179-.132.272-.191a5.162 5.162 0 0 1 .571-.308c.093-.045.184-.094.28-.133a5.158 5.158 0 0 1 .66-.2c.094-.024.184-.058.28-.076a5.221 5.221 0 0 1 1-.1z"/>
</svg>
