<svg xmlns="http://www.w3.org/2000/svg" viewBox="0 0 30 30">
    <defs>
        <style>
            .cls-1{fill:#070303}
        </style>
    </defs>
    <path id="public" d="M274 546.1a15 15 0 1 0 15 15 15.021 15.021 0 0 0-15-15zm2.095 2.3c-.2.6-1.233.2-1.664.2a5.035 5.035 0 0 0 1.133-.531l.066-.066c.2.033.365.066.569.1a3.166 3.166 0 0 0-.5.232c.125.031.258.031.391.065zm-5.229.265c.232.238.464-.133.7-.232a7.631 7.631 0 0 1 1.769-.4c-.1.265-.9.166-1.2.265-.37.133-.2.232-.437.635.1 0 .238.067.337.034v.066c-.238-.033-.47-.133-.536.166-.3-.47-.531-.437-.868 0 .337.2.669.4.4.735-.337.365-.5-.1-.2-.3-.3-.133-.536-.365-.768-.066.1 0 .2.033.3.033-.066.067-.1.337-.166.37-.133.067-.6-.1-.735-.1a5.745 5.745 0 0 0-1.067 0c.066.436-.431.033-.6-.1.332-.332.7-.2 1.1-.166.3.034.768.034.8-.364-.337-.066-.5-.066-.669-.3a.115.115 0 0 0-.033-.066 15.942 15.942 0 0 1 1.868-.6c-.099.157-.138.29 0 .39zM260.791 561.1a13.081 13.081 0 0 1 2.935-8.269c.232.166.464.37.569.436a2.185 2.185 0 0 1 .464.664 1.77 1.77 0 0 1 .166.3.96.96 0 0 1 .3.531 6.158 6.158 0 0 1-.067.735 2.335 2.335 0 0 0 .669 2.1c.166.166.4.232.564.4s.171.3.271.464a12.427 12.427 0 0 0 1 1.371c.3.4.4.3.133-.1a8.234 8.234 0 0 1-.6-.834c0-.033-.166-.437-.132-.4.431.1.536.4.834.768a5.166 5.166 0 0 1 .7.967 1.707 1.707 0 0 0 .962.967 4.65 4.65 0 0 0 .9.431c.3.034.47-.165.735-.033.2.1.332.371.564.47.238.066.37-.033.6.133.265.166.332.464.569.635a1.444 1.444 0 0 0 .63.332c.166.033.332-.1.47-.033a.571.571 0 0 1 .265.7c-.1.3-.37.5-.5.8a3.007 3.007 0 0 0-.066.768c-.033.266-.265 0-.033.464a4.644 4.644 0 0 0 .37.6 4.9 4.9 0 0 0 .763 1.034c.238.232.768.464.867.8a3.088 3.088 0 0 1-.033 1.232 19.609 19.609 0 0 1-.265 2c-.166.564-.37.763-.232 1.365.066.265.1.133 0 .5-.033.1 0 .133-.033.238-.066.2-.271.332-.371.564.265 0 .265.1.232.2-.365.033-.7.066-1.067.066a13.469 13.469 0 0 1-13.133-13.366zm15.7 12.966a.5.5 0 0 1-.133-.2 3.977 3.977 0 0 1 .3-.5c.066-.133.1-.431.2-.531.133-.166.47-.1.4-.47.7 0 1-.1 1.1-.829-.138-.066-.1-.033-.138-.133.039.133.536-.072.569.033.033.066.669-.8.735-.868a2.335 2.335 0 0 0 .431-.569 1.94 1.94 0 0 1 .2-.5c0 .033 0 .033-.033.066.232-.37.5-.3.835-.47.332-.133.1-.1.332-.332.3-.265.337-.1.437-.564.066-.337-.033-.636.1-.9.133-.37.431-.5.663-.8.171-.232.337-.636.105-.868a2.59 2.59 0 0 0-.967-.431 3.9 3.9 0 0 1-.9-.2c-.337-.138-.569-.47-.735.066-.066-.033-.265-.171-.265-.237 0 .138.3-.1.365-.166a5.6 5.6 0 0 1-.663.067 4.534 4.534 0 0 1 .265-.464c.033-.332-.437-.7-.7-.769a2.485 2.485 0 0 1-.835-.265 2.3 2.3 0 0 0-1.166-.6c-.1 0-.2.033-.3.033-.232-.033-.332-.2-.53-.232-.271-.066-.37.166-.5.166-.232 0-.265-.232-.6-.033-.5.3-.238.47-.768.337-.3-.067-.635.1-.9-.105a.593.593 0 0 1-.066-.862c-.133.1-.133-.238-.2-.3-.133-.1-.37 0-.536-.033-.232-.066-.365-.066-.3-.3s.7-.868.033-.868c-.365 0-.464.536-.835.6a.939.939 0 0 1-1-.437 1.266 1.266 0 0 1 1-1.763c.569-.066 1.4-.47 1.835.166.133.166.431.9.564.431a7.906 7.906 0 0 0-.166-1 2.682 2.682 0 0 1 .437-.431c-.033 0-.033.033-.066.066.133-.132.531-.332.6-.531.033-.1-.133-.271-.033-.4.066-.132.232-.066.3-.132.105-.1.105-.3.2-.431s.3-.133.4-.238c.232-.2.3-.464.569-.564.265-.166.531-.464.862-.332-.133.133-.431.232-.5.332s.431.033.5 0a8.64 8.64 0 0 0 .768-.464 1.818 1.818 0 0 1 1.4-.2c.171.033-.265-.6-.332-.63-.166-.2-.2-.371-.5-.133-.066.066-.171.332-.238.431-.166.332-.133.265-.531.464.033 0 .033-.033.066-.033-.265.066-.569.171-.669-.166-.033-.133.133-.3.033-.4-.2-.265-.862.3-1.1.365.132-.968 1.266-.464 1.868-.63.166-.066.8-.3.834-.436.066-.233-.5-.6-.6-.7a2 2 0 0 1-.564-.7c-.166-.365-.271-.768-.669-.469-.133.1-.033.337-.3.37-.166.033-.331-.166-.437-.265-.132-.138-.3-.5-.53-.536s-.835-.332-1.1-.132c-.232.165.033.768.1.967.133.464.232.464-.166.768-.2.133-.3 0-.232.365.033.2.265.233.1.4a.417.417 0 0 1-.437.033c-.332-.166-.033-.365-.2-.6-.133-.166-.8-.3-1-.4-.5-.232-1.835-.464-1.4-1.233a2.444 2.444 0 0 1 .7-.63 3.491 3.491 0 0 0 .6-.338c.1-.1.1-.365.166-.431.1-.1.437-.066.636-.033.768-.166.066-1.266 1.067-1.067a3.008 3.008 0 0 1 .8.5c.265.171.332.171.265.437a3.971 3.971 0 0 1-.365.4 3.663 3.663 0 0 1-.5.232 1.637 1.637 0 0 1 1.2.271 1.76 1.76 0 0 0 1.067.4c-.033-.232-.431-.133-.4-.365 0-.2.232.066.265.066.133 0 .464.166.4-.2-.066-.3-.729-.171-.531-.669.3-.033.232.3.431.365s.5-.2.536-.365c-.3-.166-1.233-.4-1.133-.834.6.4 1.232.8 1.829 1.166-.5.436.37.2.4.2.133.033.531.37.265.436s-.4-.3-.636-.033c.2.066.967.1.768.5-.066.166-.564.133-.7.47a1.108 1.108 0 0 1 .332 0c-.232.365.1.6.3.9.2.332.5.829.934.928.9.238.8-1.232 1.465-1.465a3.8 3.8 0 0 1 .6-.066 1.632 1.632 0 0 0 .5-.332 1.666 1.666 0 0 1 1.1-.3 13.026 13.026 0 0 1 3.034 4.8.333.333 0 0 0-.166.133c-.066.067-.066.133-.1.232l-.1.1c-.066.133 0 .3 0 .437 0 .166-.066.3.033.431a1.15 1.15 0 0 0 .332.365.559.559 0 0 0 .37.2.493.493 0 0 0 .2-.033l.1.6a2.008 2.008 0 0 0-.365.437c-.1.2-.1.332-.3.5-.166.166-.365.2-.531.4a4.04 4.04 0 0 0-.232.536c-.072.1-.2.133-.238.266-.133.265.033.7 0 1 0 .365-.133.669.066 1a3.671 3.671 0 0 0 .768.8 1.475 1.475 0 0 0 .569.365 13.835 13.835 0 0 1-10.465 9.547z" class="cls-1" transform="translate(-258.995 -546.1)"/>
</svg>
