<svg xmlns="http://www.w3.org/2000/svg" viewBox="0 0 28 27.936">
    <path d="M28 .465v-.1a.675.675 0 0 0-.035-.088v-.04a.169.169 0 0 0-.041-.047.374.374 0 0 0-.055-.075l-.088-.064a.154.154 0 0 0-.053-.035l-.177-.009h-.088a.286.286 0 0 0-.1 0h-.1L.403 8.667a.581.581 0 0 0-.234.963l8.45 8.424a3.391 3.391 0 0 0 3.375 3.646h.257l6.085 6.056a.584.584 0 0 0 .415.175.532.532 0 0 0 .134 0 .584.584 0 0 0 .42-.391L27.953.715a.146.146 0 0 0 0-.047.4.4 0 0 0 0-.117zm-2.826 1.406L9.369 16.923h-.035a.444.444 0 0 0-.175 0L1.676 9.461zM9.781 18.159l13.5-12.858-10.972 15.206a2.224 2.224 0 0 1-2.529-2.334zm8.707 8.1l-5.133-5.14a.21.21 0 0 0 0-.058l12.368-17.17z" data-name="パス 42"/>
    <path d="M9.094 21.184a.584.584 0 0 0-.828 0l-2.333 2.333a.585.585 0 1 0 .828.828l2.333-2.331a.582.582 0 0 0 0-.828z" data-name="パス 43"/>
    <path d="M6.474 21.712l1.458-1.457a.585.585 0 1 0-.828-.828l-1.458 1.457a.585.585 0 1 0 .828.828z" data-name="パス 44"/>
    <path d="M10.019 22.349l-1.458 1.457a.585.585 0 1 0 .828.828l1.458-1.457a.585.585 0 1 0-.828-.828z" data-name="パス 45"/>
</svg>
