<svg xmlns="http://www.w3.org/2000/svg" viewBox="0 0 24.183 24.183">
    <path d="M23.806 10.575c-.193-.123-1.719-1.035-2.324-1.313l-.75-1.814c.222-.6.651-2.28.725-2.573a.808.808 0 0 0-.218-.75L20.057 2.95a.8.8 0 0 0-.75-.218c-.222.051-1.935.484-2.573.725l-1.814-.75c-.263-.579-1.15-2.066-1.312-2.322A.8.8 0 0 0 12.923 0H11.26a.81.81 0 0 0-.684.377C10.452.571 9.54 2.1 9.262 2.7l-1.814.75c-.6-.222-2.28-.651-2.573-.725a.808.808 0 0 0-.75.218L2.95 4.126a.8.8 0 0 0-.218.75c.051.222.484 1.935.725 2.573l-.75 1.814c-.58.264-2.068 1.151-2.324 1.313A.8.8 0 0 0 0 11.26v1.661a.81.81 0 0 0 .377.684c.194.124 1.723 1.035 2.323 1.314l.75 1.814c-.222.6-.651 2.28-.725 2.573a.808.808 0 0 0 .218.75l1.175 1.174a.8.8 0 0 0 .75.218c.222-.051 1.935-.484 2.573-.725l1.814.75c.264.58 1.151 2.068 1.313 2.324a.8.8 0 0 0 .692.387h1.661a.81.81 0 0 0 .684-.377c.123-.193 1.035-1.719 1.313-2.324l1.814-.75c.6.222 2.28.651 2.573.725a.808.808 0 0 0 .75-.218l1.175-1.175a.8.8 0 0 0 .218-.75c-.051-.222-.484-1.935-.725-2.573l.75-1.814c.58-.264 2.068-1.151 2.324-1.313a.8.8 0 0 0 .387-.692V11.26a.8.8 0 0 0-.377-.684zm-11.714 6.781a5.269 5.269 0 1 1 5.274-5.265 5.269 5.269 0 0 1-5.274 5.265z" data-name="setting"/>
</svg>
