<svg xmlns="http://www.w3.org/2000/svg"  viewBox="0 0 21.138 23.78">
    <path d="M17.174 2.642h-3.963a2.642 2.642 0 1 0-5.284 0H3.963A3.963 3.963 0 0 0 0 6.606v13.211a3.963 3.963 0 0 0 3.963 3.963h13.211a3.963 3.963 0 0 0 3.963-3.963V6.606a3.963 3.963 0 0 0-3.963-3.963zm2.642 17.174a2.645 2.645 0 0 1-2.642 2.642H3.963a2.645 2.645 0 0 1-2.642-2.642V6.606a2.645 2.645 0 0 1 2.642-2.643h1.321a1.321 1.321 0 0 0 1.321 1.321h7.927a1.321 1.321 0 0 0 1.321-1.321h1.321a2.645 2.645 0 0 1 2.642 2.642z"/>
</svg>
